<?xml version="1.0" encoding="iso-8859-1"?>
<!-- Generator: Adobe Illustrator 19.0.0, SVG Export Plug-In . SVG Version: 6.00 Build 0)  -->
<svg version="1.1" id="Layer_1" xmlns="http://www.w3.org/2000/svg" xmlns:xlink="http://www.w3.org/1999/xlink" x="0px" y="0px"
	 viewBox="0 0 511.999 511.999" style="enable-background:new 0 0 511.999 511.999;" xml:space="preserve">
<g>
	<path style="fill:#A9603A;" d="M239.558,492.397l-8.974-170.922l-16.536,0.869l8.643,164.604l0.316,0.102L199,495.854
		c-4.343,1.432-6.702,6.114-5.27,10.456c1.432,4.344,6.114,6.701,10.456,5.27l29.683-10.887
		C237.498,499.498,239.733,496.031,239.558,492.397z"/>
	<path style="fill:#A9603A;" d="M272.442,492.397l8.974-170.922l16.536,0.869l-8.643,164.604l-0.316,0.102l24.006,8.805
		c4.343,1.432,6.702,6.114,5.27,10.456c-1.432,4.344-6.114,6.701-10.456,5.27l-29.683-10.887
		C274.502,499.498,272.268,496.031,272.442,492.397z"/>
</g>
<path style="fill:#460929;" d="M334.247,78.246c0-5.674-2.462-10.763-6.359-14.296c2.252-4.758,2.572-10.41,0.408-15.654
	c-2.175-5.244-6.403-8.997-11.348-10.774c0.254-5.255-1.601-10.598-5.619-14.605c-4.007-4.018-9.35-5.873-14.605-5.619
	c-1.777-4.946-5.531-9.174-10.774-11.348s-10.896-1.844-15.654,0.408C266.764,2.462,261.675,0,256.001,0s-10.763,2.462-14.296,6.359
	c-4.758-2.252-10.399-2.583-15.654-0.408c-5.244,2.175-8.997,6.403-10.774,11.348c-5.255-0.254-10.598,1.601-14.605,5.619
	c-4.018,4.007-5.873,9.35-5.619,14.605c-4.946,1.777-9.174,5.531-11.348,10.774c-2.164,5.244-1.844,10.896,0.408,15.654
	c-3.897,3.533-6.359,8.622-6.359,14.296s2.462,10.763,6.359,14.296c-2.252,4.758-2.572,10.399-0.408,15.643
	c2.175,5.255,6.403,9.008,11.348,10.785c-0.254,5.255,1.601,10.587,5.619,14.605c4.007,4.018,9.35,5.873,14.605,5.619h81.448
	c5.255,0.254,10.598-1.601,14.605-5.619c4.018-4.018,5.873-9.35,5.619-14.605c4.946-1.777,9.174-5.531,11.348-10.785
	c2.164-5.244,1.844-10.885-0.408-15.643C331.785,89.009,334.247,83.92,334.247,78.246z"/>
<g>
	<path style="fill:#FFB13A;" d="M307.755,177.607c18.261,0,33.118-14.857,33.118-33.118c0-4.574-3.707-8.279-8.279-8.279
		c-4.572,0-8.279,3.706-8.279,8.279c0,9.131-7.428,16.559-16.559,16.559s-16.559-7.428-16.559-16.559
		c0-4.757,2.05-9.288,5.626-12.436c3.432-3.02,3.767-8.253,0.745-11.685c-3.021-3.433-8.255-3.764-11.685-0.745
		c-7.146,6.289-11.245,15.352-11.245,24.865C274.637,162.75,289.494,177.607,307.755,177.607z"/>
	<path style="fill:#FFB13A;" d="M204.246,177.607c-18.261,0-33.118-14.857-33.118-33.118c0-4.574,3.707-8.279,8.279-8.279
		s8.279,3.706,8.279,8.279c0,9.131,7.428,16.559,16.559,16.559s16.559-7.428,16.559-16.559c0-4.757-2.05-9.288-5.626-12.436
		c-3.432-3.02-3.767-8.253-0.745-11.685c3.021-3.433,8.255-3.764,11.685-0.745c7.146,6.289,11.245,15.352,11.245,24.865
		C237.364,162.75,222.507,177.607,204.246,177.607z"/>
</g>
<g>
	<path style="fill:#A9603A;" d="M401.206,109.544c-4.567-0.496-8.634,2.786-9.131,7.331c-2.552,23.355-14.047,44.317-32.366,59.025
		c-18.318,14.708-41.266,21.407-64.624,18.85h-78.17c-48.207,5.273-91.72-29.665-96.991-77.874
		c-0.497-4.545-4.586-7.816-9.131-7.331c-4.546,0.497-7.828,4.585-7.331,9.131c5.842,53.446,51.233,93.162,103.815,93.16
		l97.563,0.008c23.686,0,46.498-7.988,65.233-23.031c21.768-17.477,35.427-42.386,38.461-70.136
		C409.032,114.129,405.751,110.041,401.206,109.544z"/>
	<path style="fill:#A9603A;" d="M283.875,184.39h-55.748c-10.222,0-18.59,8.357-18.59,18.59v25.931l46.464,22.078l46.464-22.078
		V202.98C302.465,192.746,294.097,184.39,283.875,184.39z"/>
	<path style="fill:#A9603A;" d="M303.892,108.612c0,26.456-21.444,47.883-47.9,47.883c-26.438,0-47.883-21.426-47.883-47.883
		s21.444-47.9,47.883-47.9C282.447,60.711,303.892,82.156,303.892,108.612z"/>
</g>
<path style="fill:#FF5700;" d="M279.227,214.251c-9.538,0-17.972,5.785-23.227,14.66c-5.255-8.876-13.7-14.66-23.238-14.66
	s-17.972,5.785-23.227,14.66v137.372h92.927l0.001-137.372C297.199,220.035,288.765,214.251,279.227,214.251z"/>
<g>
	<path style="fill:#FFB13A;" d="M302.464,309.775h-92.927c-4.572,0-8.279-3.706-8.279-8.279c0-4.574,3.707-8.279,8.279-8.279h92.927
		c4.572,0,8.279,3.706,8.279,8.279C310.743,306.07,307.036,309.775,302.464,309.775z"/>
	<path style="fill:#FFB13A;" d="M179.408,152.769c-4.572,0-8.279-3.706-8.279-8.279c0-18.261,14.857-33.118,33.118-33.118
		c4.466,0,8.805,0.877,12.894,2.606c4.211,1.781,6.181,6.64,4.399,10.85c-1.781,4.211-6.639,6.18-10.85,4.399
		c-2.037-0.861-4.204-1.298-6.443-1.298c-9.131,0-16.559,7.428-16.559,16.559C187.688,149.062,183.981,152.769,179.408,152.769z"/>
	<path style="fill:#FFB13A;" d="M332.593,152.769c4.572,0,8.279-3.706,8.279-8.279c0-18.261-14.857-33.118-33.118-33.118
		c-4.466,0-8.805,0.877-12.894,2.606c-4.211,1.781-6.181,6.64-4.399,10.85c1.781,4.211,6.639,6.18,10.85,4.399
		c2.037-0.861,4.204-1.298,6.442-1.298c9.131,0,16.559,7.428,16.559,16.559C324.314,149.062,328.021,152.769,332.593,152.769z"/>
</g>
<g>
</g>
<g>
</g>
<g>
</g>
<g>
</g>
<g>
</g>
<g>
</g>
<g>
</g>
<g>
</g>
<g>
</g>
<g>
</g>
<g>
</g>
<g>
</g>
<g>
</g>
<g>
</g>
<g>
</g>
</svg>
